<svg width="46" height="43" viewBox="0 0 46 43" fill="none" xmlns="http://www.w3.org/2000/svg">
<path d="M27.5286 28.8178L21.9342 31.2524V31.0193C20.8205 31.3042 19.6809 31.4596 18.5154 31.5114C13.2577 31.4596 9.0878 28.7142 9.036 25.4508V24.2336C10.7454 26.7458 14.2937 28.4293 18.5154 28.3516C19.914 28.4034 21.2867 28.2221 22.6335 27.8595L23.1256 26.6422C21.6234 27.1084 20.0694 27.3674 18.5154 27.3674C13.2577 27.3933 9.0878 24.6479 9.036 21.3069V20.3227C10.7454 22.6537 14.2678 24.3113 18.5154 24.2336C20.3543 24.3372 22.1932 24.0005 23.8508 23.2494L24.0839 22.0321C22.3486 22.8868 20.432 23.3271 18.4895 23.2494C13.2318 23.3271 9.0619 20.5817 9.0101 17.1888V16.2046C10.7195 18.5874 14.2678 20.245 18.4895 20.3227C20.7687 20.245 23.022 19.6752 25.0681 18.6392L25.3012 17.1888C23.6177 18.432 21.1313 19.2608 18.5154 19.3644C13.2318 19.2349 9.0619 16.4895 9.0101 13.0448C9.0619 9.78139 13.2318 7.01009 18.4895 6.98419C21.6234 7.03599 24.5242 8.14969 26.2595 9.91089L26.4408 10.1699H27.6581L27.4768 9.88499C25.7415 7.554 22.2968 6 18.4636 6C12.662 6 8 9.21159 8 13.0448V25.6839C8.2072 29.4394 12.7397 32.4956 18.4636 32.4956C22.2968 32.4697 25.6897 30.9675 27.5286 28.8178Z" fill="white"/>
<path d="M25.2493 37.3907L27.2177 29.0509L21.5716 31.5114L25.0162 17.0333H18.3859L20.0953 9.91083H41.2037L39.4943 17.0333H32.6308L31.1545 20.9701L38.7691 17.7844L25.2493 37.3907ZM28.694 27.3156L27.7098 32.2107L35.8165 19.9341L29.1861 22.8867L32.1387 16.0232H38.7691L39.9864 10.8691H20.8464L19.6291 16.0232H26.2594L23.0738 29.7502L28.694 27.3156Z" fill="white"/>
</svg>
