<svg width="51" height="51" viewBox="0 0 51 51" fill="none" xmlns="http://www.w3.org/2000/svg">
<path d="M42.6887 25.8444C42.6887 24.5035 41.6831 23.4141 40.3423 23.2465C40.0071 21.1514 39.169 19.1402 37.912 17.4641C38.75 16.4585 38.6663 14.95 37.7444 13.9444C36.8226 13.0226 35.3141 12.9387 34.2246 13.7768C32.4648 12.6035 30.5373 11.7655 28.4422 11.3465C28.2746 10.0056 27.1852 9 25.8444 9C24.5035 9 23.4141 10.0056 23.2465 11.3465C21.1514 11.6817 19.1401 12.5197 17.4641 13.7768C16.4584 12.9387 14.95 13.0226 13.9444 13.9444C13.0226 14.8662 12.9387 16.3747 13.7767 17.4641C12.6035 19.224 11.7655 21.1514 11.3465 23.2465C10.0057 23.4141 9 24.5035 9 25.8444C9 27.1852 10.0057 28.2747 11.3465 28.4423C11.6817 30.5373 12.5197 32.5486 13.7767 34.2247C12.9387 35.2303 13.0226 36.7388 13.9444 37.7444C14.4472 38.2472 15.1176 38.4986 15.788 38.4986C16.3746 38.4986 16.9613 38.331 17.4641 37.912C19.2239 39.0852 21.1514 39.9233 23.2465 40.3423C23.4141 41.6831 24.5035 42.6888 25.8444 42.6888C27.1852 42.6888 28.2746 41.6831 28.4422 40.3423C30.5373 40.0071 32.5486 39.169 34.2246 37.912C34.7275 38.331 35.3141 38.4986 35.9007 38.4986C36.4873 38.4986 37.2416 38.2472 37.7444 37.7444C38.6663 36.8226 38.75 35.3141 37.912 34.2247C39.0852 32.4648 39.9233 30.5373 40.3423 28.4423C41.6831 28.2747 42.6887 27.1852 42.6887 25.8444ZM35.9007 33.3028C35.3979 33.3028 34.8951 33.4704 34.4761 33.7218L33.7218 32.9676C33.5542 32.8 33.219 32.8 32.9676 32.9676C32.7162 33.1352 32.8 33.4704 32.9676 33.7218L33.7218 34.4761C33.4704 34.8951 33.3028 35.3979 33.3028 35.9007C33.3028 36.4035 33.3867 36.7388 33.6381 37.1578C32.0458 38.2472 30.2859 39.0014 28.4422 39.3366C28.1908 38.4148 27.4367 37.7444 26.431 37.493V36.4035C26.431 36.1521 26.1795 35.9007 25.9281 35.9007C25.6767 35.9007 25.4253 36.1521 25.4253 36.4035V37.493C24.5035 37.6606 23.7493 38.4148 23.4141 39.3366C21.5704 39.0014 19.7268 38.2472 18.2183 37.1578C18.3859 36.8226 18.5535 36.4035 18.5535 35.9007C18.5535 35.3979 18.3859 34.8951 18.1345 34.4761L18.8888 33.7218C19.0564 33.5542 19.0564 33.219 18.8888 32.9676C18.7212 32.7162 18.3859 32.8 18.1345 32.9676L17.3803 33.7218C16.9613 33.4704 16.4585 33.3028 15.9557 33.3028C15.4529 33.3028 15.1176 33.3867 14.6986 33.6381C13.6092 32.0458 12.8549 30.2859 12.5197 28.4423C13.4415 28.1909 14.112 27.4366 14.3634 26.431H15.4528C15.7042 26.431 15.9557 26.1796 15.9557 25.9282C15.9557 25.6768 15.7042 25.4254 15.4528 25.4254H14.3634C14.1958 24.5035 13.4415 23.7493 12.5197 23.4141C12.8549 21.5704 13.6092 19.7268 14.6986 18.2183C15.0338 18.3859 15.4529 18.5535 15.9557 18.5535C16.4585 18.5535 16.9613 18.3859 17.3803 18.1345L18.1345 18.8888C18.2183 18.9726 18.386 19.0563 18.4698 19.0563C18.5536 19.0563 18.7211 19.0564 18.8049 18.8888C18.9725 18.7211 18.9725 18.3859 18.8049 18.1345L18.0507 17.3803C18.3022 16.9613 18.4698 16.4585 18.4698 15.9557C18.4698 15.4528 18.3859 15.1176 18.1345 14.6986C19.7268 13.6092 21.4866 12.8549 23.3303 12.5197C23.5817 13.4416 24.3359 14.112 25.3416 14.3634V15.4528C25.3416 15.7042 25.5929 15.9557 25.8444 15.9557C26.0958 15.9557 26.3472 15.7042 26.3472 15.4528V14.3634C27.269 14.1958 28.0232 13.4416 28.3584 12.5197C30.2021 12.8549 32.0458 13.6092 33.5543 14.6986C33.3867 15.0338 33.219 15.4528 33.219 15.9557C33.219 16.4585 33.3867 16.9613 33.6381 17.3803L32.8838 18.1345C32.7162 18.3021 32.7162 18.6373 32.8838 18.8888C33.0514 19.1402 33.1352 19.0563 33.219 19.0563C33.3029 19.0563 33.4705 19.0564 33.5543 18.8888L34.3084 18.1345C34.7274 18.3859 35.2303 18.5535 35.7331 18.5535C36.236 18.5535 36.5712 18.4697 36.9902 18.2183C38.0796 19.8106 38.8338 21.5704 39.169 23.4141C38.2472 23.6655 37.5768 24.4197 37.3254 25.4254H36.2359C35.9845 25.4254 35.7331 25.6768 35.7331 25.9282C35.7331 26.1796 35.9845 26.431 36.2359 26.431H37.3254C37.493 27.3528 38.2472 28.1071 39.169 28.4423C38.8338 30.2859 38.0796 32.1296 36.9902 33.6381C36.655 33.4705 36.236 33.3028 35.7331 33.3028H35.9007ZM41.5993 25.8444C41.5993 26.6824 40.9289 27.4366 40.0071 27.4366C39.0852 27.4366 38.4148 26.7662 38.4148 25.8444C38.4148 24.9225 39.0852 24.2521 40.0071 24.2521C40.9289 24.2521 41.5993 24.9225 41.5993 25.8444ZM36.9902 14.6986C37.5768 15.2852 37.5768 16.2908 36.9902 16.9613C36.4036 17.5479 35.3141 17.5479 34.7274 16.9613C34.1408 16.3747 34.2246 16.2909 34.2246 15.8718C34.2246 15.4528 34.3922 15.0338 34.7274 14.7824C35.0626 14.531 35.4817 14.2796 35.8169 14.2796C36.1521 14.2796 36.655 14.4472 36.9064 14.7824L36.9902 14.6986ZM25.8444 10.0056C26.6824 10.0056 27.4366 10.6761 27.4366 11.5979C27.4366 12.5197 26.7662 13.1901 25.8444 13.1901C24.9225 13.1901 24.2521 12.5197 24.2521 11.5979C24.2521 10.6761 24.9225 10.0056 25.8444 10.0056ZM14.6148 14.6986C14.95 14.3634 15.369 14.1958 15.7042 14.1958C16.0394 14.1958 16.5423 14.3634 16.7937 14.6986C17.0451 15.0338 17.2965 15.369 17.2965 15.788C17.2965 16.2071 17.1289 16.6261 16.7937 16.8775C16.2071 17.4641 15.1176 17.4641 14.531 16.8775C13.9443 16.2909 13.9443 15.2852 14.531 14.6148L14.6148 14.6986ZM10.0056 25.8444C10.0056 25.0064 10.676 24.2521 11.5979 24.2521C12.5197 24.2521 13.1901 24.9225 13.1901 25.8444C13.1901 26.7662 12.5197 27.4366 11.5979 27.4366C10.676 27.4366 10.0056 26.7662 10.0056 25.8444ZM14.6148 37.074C14.0281 36.4873 14.0281 35.4817 14.6148 34.8113C14.95 34.4761 15.2852 34.3085 15.7042 34.3085C16.1232 34.3085 16.5423 34.4761 16.7937 34.8113C17.0451 35.1465 17.2965 35.4817 17.2965 35.9007C17.2965 36.3197 17.1289 36.7388 16.7937 36.9902C16.2071 37.5768 15.2014 37.5768 14.531 36.9902L14.6148 37.074ZM25.8444 41.6831C25.0063 41.6831 24.2521 41.0127 24.2521 40.0909C24.2521 39.169 24.9225 38.4986 25.8444 38.4986C26.7662 38.4986 27.4366 39.169 27.4366 40.0909C27.4366 41.0127 26.7662 41.6831 25.8444 41.6831ZM36.9902 37.074C36.4036 37.6606 35.3979 37.6606 34.7274 37.074C34.057 36.4873 34.2246 36.4035 34.2246 35.9845C34.2246 35.5655 34.3922 35.1465 34.7274 34.8951C35.0626 34.6437 35.3979 34.3923 35.8169 34.3923C36.2359 34.3923 36.655 34.5599 36.9064 34.8951C37.493 35.4817 37.493 36.4873 36.9064 37.1578L36.9902 37.074Z" fill="white"/>
</svg>
